<?xml version="1.0" encoding="utf-8"?>
<!-- Generator: Adobe Illustrator 26.0.3, SVG Export Plug-In . SVG Version: 6.00 Build 0)  -->
<svg version="1.1" id="Layer_1" xmlns="http://www.w3.org/2000/svg" xmlns:xlink="http://www.w3.org/1999/xlink" x="0px" y="0px"
	 viewBox="0 0 2048 2048" style="enable-background:new 0 0 2048 2048;" xml:space="preserve">
<style type="text/css">
	.st0{fill-rule:evenodd;clip-rule:evenodd;fill:#F2F2F2;}
	.st1{fill-rule:evenodd;clip-rule:evenodd;fill:#8DA018;}
	.st2{fill:#55AFDF;}
	.st3{fill:#0F4D5F;}
</style>
<path id="color-2" class="st0" d="M677,656.8l-0.6,8.2l0.6,8.2l-0.8,9.2l-2,9.2l-2.4,7.2l-3.6,6.8l-5.4,6l-8.4,5l-3.2,1V1816h-49.6
	V717.2l-2.8-0.8l-8.4-5l-5.4-6l-3.6-6.8l-2.4-7.2l-2-9.2l-0.8-9.2l0.6-8.2l-0.6-8.2l0.8-9.2l2-9.2l2.4-7.2l3.6-6.8l5.4-6l8.4-5
	l9.2-2.8l9.8-1.2l8.8,0.4l8.8-0.4l9.8,1.2l9.2,2.8l8.4,5l5.4,6l3.6,6.8l2.4,7.2l2,9.2L677,656.8z M304.8,124.8l13.2,53l-13.2,53
	v16.8H948v-16.8l-13.2-53l13.2-53V108H304.8V124.8z M1217.8,1695l0.2-0.2l-1.6-13.2h0.2l-1.6-13.4h0.2l-1.8-13.4h0.2l-0.8-5.6
	l-0.8-7.6h0.2l-3-24.8l-2.2-17.2l-1.8-14.6l-2.4-19.2l-0.8-7.6l-1.8-19.6l-2.2-26.8l-3.6-55.2l-3.2-63.8l-1-45.6l-0.4-36.8v-36.8
	l0.4-37l0.6-36.8l1.2-83.4l0.6-11l-0.4-4.8l0.2-38l-0.2-34.2l-0.2-27.8l-0.2-43.8l-19.6,0.2l-7.8,10.4l-6.6,6.6l-3.6,2.8l-3.8,2.4
	l-4.2,2l-4.8,1.6l-6,1.6l-5.8,1l-6.6-0.2l-7.2-0.4l-6.2-0.6l-5.8-1.2l-5.2-2.2l-5-3l-6.6-5.2l-5.8-6l-7.2-9.8h-19.6l0.2,36.4
	l0.2,32.2l0.2,38l-0.2,36l0.4,5.8l-2.4,68.6l-1.2,49.2l-1.2,45.2l-0.2,29v29l0.8,43.2l1.6,43.2l2,39.2l2.4,39.2l3.2,39.6l3.6,39.6
	l4.6,44.8l0.4,3.8l1,9.4l0.4,4l1,9.4l6,51.4l15-1.8l109.2,19l16.8-2.2L1217.8,1695z M206.6,1239.2l-2-36.4l-2.2-39.8l-3.2-47.6
	l-0.2-9.2l0.2-0.8l0.4-5.6h-0.4l-0.2-19.2v-16.8l0.2-38l0.2-32.2l0.2-36.2l-19.6-0.2l-7.2,10l-5.8,6l-6.8,5.2l-5,3l-5.2,2.2
	l-5.6,1.2l-6.4,0.8l-7.2,0.4l-6.6,0.2l-5.8-1l-6.2-1.6l-4.6-1.6l-4.2-2l-3.8-2.4l-3.6-2.8l-6.6-6.8l-7.8-10.4l-19.4-0.2l-0.2,43.8
	l-0.2,28l-0.2,34l0.2,38l0.4,0.2l-0.4,4.8l0.2,0.2l-0.4-0.2L62,1117l1.6,79.4l0.8,35.2l0.6,35.2l0.2,35.2l-0.2,35l-0.6,43.4
	l-3.2,63.8l-3.4,55.2l-2.2,26.8l-1.6,26l-2.4,24l-3.6,29.6l-2.2,19.2l-2,14.6l-2.2,17.4l-3.2,24.8h0.2L37,1695h0.2l-1.6,13.2l17,2.2
	l109-18.8l15,1.8l6-51.2l1-9.4l0.4-3.8l1-9.4l0.4-3.8l1-9.4l0.4-3.8l1-9.4l0.4-4l1-9.4l0.4-3.8l4.8-44.8l3.8-39.6l3.2-39.6l2.4-39.2
	l2-39.2l1.6-43.2l0.8-43.4l-1.2-24L206.6,1239.2z"/>
<path id="base" class="st1" d="M45,1630.8l-2.8,0.4l-0.6,23.8h0.2l-1.6,13.4H40l-1.6,13.2h0.2l0,0l-1.6,13.2l0,0h0.2l-1.6,13.4l17,2
	l0,0l109-19l15,1.8l6-51.2l1-9.4l2.6-24L45,1630.8z M1217.8,1695L1217.8,1695l-1.4-13.4h0.2l-1.6-13.2h0.2l-1.6-13.4h0.2l-0.6-23.8
	l-2-0.4l-142.2-22.4v0.4l0.8,8.2l1.6,15.6l1,9.4l6,51.2l15-1.8l109,19l17-2L1217.8,1695z M1994,560.4l-0.8-13.4l-0.6-11.8l-0.6-13.8
	l-2-45.6l-1-32.8l-0.6-24l-0.6-32.2l-0.2-15.4V358v-61.6h-717.2V358l-0.2,13.4l-0.2,15.4l-0.6,32.2l-0.8,24l-1,32.8l-2,45.6
	l-0.6,13.8l-0.6,11.8l-0.6,13.4l-1.6,32h733.2L1994,560.4z M565,449.4l-54.6-18.6l-37.4-14l-36.2-16l-25-13.4l-24.2-15l-23.2-16.6
	L334.6,331L307,303.8l-25-29.4L266,253l-3.8-8.4L257,233l-4.4-10.4l-11-26.6l-2.8,1l-6-14.6l-21.8,9l-15.8,5.6l-19,5.6l-19.2,5
	l-25.2,5.6l-25.2,4.4L77.8,220L49,221l-37-1v572l37-1l26,0.6l26,2.4l19.8,3l19.8,3.8l22,5L184,812l21.4,7l26.8,10.6l6.4-14.2l2.2,1
	l13.6-30l8-15.8l7-12.6l0.4-0.6L291,731l23.6-25.8l25.4-24.4l27-22.6l28-21l29.4-18.8l30.8-16l21.2-9l21.8-7.8l22.2-6.6l24.6-6
	l24.8-4.8l31.6-4.2l-1.2-15.6l-0.4-11l-0.2-13.4v-6.4l-0.2-10l1.6-4.6l1.8-3.2l2-2.8l2.8-2.6l3.6-2.4l4-2.4l7-3.6l4.6-18.2
	L565,449.4z M1204,221l-28.8-1l-28.6-2.8l-25.4-4.4l-25-5.6l-19.2-5l-19-5.6l-15.8-5.6l-22-9l-6,14.6l-2.8-1l-11,26.6l-4.4,10.4
	l-5.4,11.6l-3.8,8.4l-15.6,21.2L946,303.6l-27.6,27.2l-29.6,24.8l-23.4,16.6l-24.2,15l-25,13.4l-36.4,16l-37.4,14l-54.6,18.6
	l-61.6,18.4l4.8,18.2l6.8,3.6l4,2.4l3.6,2.4l2.8,2.8l2,2.6l1.6,3.2l1.8,4.6l-0.2,9.8v6.6v13.4l-0.4,11l-1.4,15.6l31.4,4.4l24.8,4.8
	l24.6,6l22.2,6.6l21.8,7.8l21.2,9l30.8,16l29.4,18.6l28,20.8l27,22.6l25.4,24.4l23.6,25.8l21.2,26.2l0.4,0.6l7,12.6l8,15.8l13.6,30
	l2.2-1l6.4,14.4l26.8-10.6l21.4-7.2l21.6-5.8l22-5l19.8-3.8l19.8-3l26-2.4l26-0.6l37,1v-572L1204,221z M2035.4,960
	c-0.4-2.2-4-4-7.2-4c-1.6,0-2.2-0.4-3.2-3.8h1l-4.4-18.2l-8-24.4l-9.6-24l-11-23.2l-13.4-23.6l-15-22.4l-16.8-21.2l-18.4-19.8
	l-28.4-25l-30.6-22l-32-20.2l-36.2-20.8l-37-19l-44-19.6L1716,660l-8,1.2l-11.6,1l-9.2,0.4l-9.2,0.2h-19.8l-20.4,0.2l-20.4-0.2
	h-19.6l-9.2-0.2l-9.2-0.4l-11.6-1l-8-1.2l-6-11.2l-44,19.6l-37,19l-36.2,20.8l-32,20.2l-30.6,22l-28.4,25l-18.4,19.8l-16.8,21.2
	l-15,22.4l-13.4,23.6l-11,23.2l-9.6,24l-8,24.4l-4.4,18.2h0.6c-1,3-1.8,3.4-3.2,3.4c-2.6,0-6,1.6-7,3c-1,2-1,7.6,1.6,30.2
	c5.8,56.4,9,82.2,16,126c15.4,95.8,18.4,119.6,21.8,169c1.2,18,0.4,140.8-1,174.6c-3.2,72-3.8,86.6-7.4,152.4l-1.2,23.6l1.6,2
	c1,1.6,2.4,2,4.8,2.6c11.8,2,13.8,2.6,13.8,4.4c0,6,2.6,9,8,9c1.6,0,5,0.4,7.6,1l5,1l0.4,4.4c0.2,2.4,0.6,4.6,1.2,5.2s3.6,1.4,7,1.8
	c17.8,2.2,73.4,17,112.4,30c71.6,24,124.8,34.6,195.6,39.6c12,0.8,14.6,0.8,33-0.6c33.2-2.8,62.2-6.8,90.8-12.6
	c31.4-6.4,55-13,93.8-25.8c36-12,92.6-27.4,111.6-30.4c9.6-1.6,10.4-2.2,10.4-7.6v-3.8l3.8-0.8c2-0.4,6-1,8.6-1.6
	c6.4-1,7.6-2,7.6-6.8v-3.4l4-1c2.2-0.4,6-1.2,8.8-1.6c5.6-0.6,7.8-2.6,7.8-7c0-1.6-1-23.8-2.4-49.6c-2.4-45-3.2-62-5.8-124.6
	c-1.8-43-1.8-169.4,0-190.6c3.8-43.6,6.4-64.6,17.2-131.2c9.4-57.8,12.4-80.4,17-123.6C2034.6,978.4,2036,962.4,2035.4,960z
	 M597.4,765.4l-11.8-2.4l-11.6-3.6l-12.2-5l-11.2-6.2l-10-7.8l-6.4-7.2l-5.6-8.2l-5-8.8l-5.2-12.2l-4-12.8L510,676l-35.4,8.8
	l-28.8,10L418,707.4l-26.6,15.4L372,736.2l-18.4,15l-16.8,16.4l-15.4,18l-19.6,28.6L285,844.6l-15.4,30.8l-19.8,41l-17.2,37.8
	l-9.2,1h9c-0.4,0.4-2,0.6-3,0.6s-3.4,0.6-4.6,1.6l-2.4,1.6v6c0.2,7,7,69,10.4,95.4c2.6,19.6,5.2,36.4,12.8,83.2
	c8.2,51.4,12,78.4,15.6,119.6c1,12.4,1.4,22.4,1.4,90.2c0,51-0.4,83.6-1,98c-0.4,12-1.6,36.6-2.4,55c-1.6,38.4-3.2,73.2-4.2,89.6
	c-1,17-1,17.6,1.2,20.2l2,2.4l8.4-0.2l8.2-0.2l-0.4,4c-0.4,3.8-0.2,4.2,1.6,6c1.6,1.8,3,2.2,6.6,2.6c2.4,0.4,6.2,0.2,8.4-0.2
	l3.6-0.6v6.6c0,9.2,0.4,10,9.4,10.2c7.6,0.2,7,0.4,44-10.4c56-16.2,105.4-28.8,154-38.6c33-6.6,71.6-12.4,99.2-14.6V765.8
	L597.4,765.4z M1030.6,960c-0.6-2.4-4.4-4.6-8-4.6h-2.8l0,0h9.6l-9.2-1l-17-38l-20-41l-15.2-31l-16.8-30.2l-19.6-28.6l-15.4-17.8
	l-17-16.4l-18.2-15l-19.4-13.6L835,707.6l-27.8-12.8l-28.8-10l-35.2-9l-4.6,15.2l-4,12.8l-5.2,12.2l-4.8,8.8l-5.8,8.2l-6.4,7.2
	l-10,7.8l-11.2,6.2l-12.2,5l-11.6,3.6l-11.8,2.4l-4.4,0.4v816.6c19.2,1.4,42.6,4.4,71,9.2c49.6,8.2,121.2,25.8,192.8,47
	c22.2,6.6,24.6,7.2,31.4,7.6l7.2,0.4l2.2-2.2c2.2-2.2,2.2-2.4,2-8.6c-0.2-5.4,0-6.2,0.8-6c6.4,1.8,15,1,17.6-1.4
	c1.4-1.4,1.6-2.4,1.6-6.2v-4.4l7.6,0.4c12,0.4,13.6-1,12.8-12c-1-15-3.4-66.4-6.2-132c-1.6-33.4-1.6-45.8-1.6-118.2
	c0-87.6,0-83.6,4.4-124c3-28,5.8-47,13.8-96.2c7-43.6,9-57.2,11.8-76.4C1024.4,1025.8,1031,962.4,1030.6,960z"/>
<path id="stripe-2" class="st2" d="M434.2,168.2h21.4v79.6h-21.4V168.2z"/>
<path id="stripe-1" class="st3" d="M412.8,168.2h21.4v79.6h-21.4V168.2z M455.6,247.8H477v-79.6h-21.4V247.8z M49,221.2l-37-1v572
	l37-1l26,0.6l10,1l0.2-573.4l-7.4,0.8L49,221.2z M1203.8,221.2l-28.8-0.8l-5.4-0.8v573.6l8.2-1l26-0.6l37,1V220.2L1203.8,221.2z"/>
</svg>
