<?xml version="1.0" encoding="utf-8"?>
<!-- Generator: Adobe Illustrator 26.0.3, SVG Export Plug-In . SVG Version: 6.00 Build 0)  -->
<svg version="1.1" id="Layer_1" xmlns="http://www.w3.org/2000/svg" xmlns:xlink="http://www.w3.org/1999/xlink" x="0px" y="0px"
	 viewBox="0 0 2048 2048" style="enable-background:new 0 0 2048 2048;" xml:space="preserve">
<style type="text/css">
	.st0{fill:#FFFFFF;}
	.st1{fill:#0057B7;}
	.st2{fill:#AA00A8;}
	.st3{fill:#8DA018;}
</style>
<g>
	<g>
		<path id="base" class="st0" d="M1030.5,959.8c0.7,2.4-6.5,65.9-10.8,99.2c-2.4,18.9-4.4,32.6-11.6,76.1c-8,49-10.6,67.9-13.8,96.3
			c-4.4,39.9-4.3,36.2-4.3,123.7c0,72.5,0,84.8,1.5,118.3c2.7,65.9,5.1,117.4,6.1,132.3c0.9,10.9-0.9,12.1-12.8,11.8l-7.7-0.2v4.4
			c0,3.8-0.2,4.8-1.5,6.1c-2.4,2.4-11.3,3.1-17.6,1.4c-1-0.2-1,0.9-0.9,6.1c0.2,6.5,0.2,6.5-2,8.5l-2.2,2.2l-7.2-0.2
			c-6.7-0.3-9-1-31.4-7.7c-71.7-21.3-143.2-38.7-192.9-46.9c-34.8-5.8-61.8-9-83.5-10.1c-4.4-0.2-7.3-0.3-9.7-0.3
			c0.7-0.2,1-0.3,1.5-0.9l-11-2.8V769.3l11-0.1c-1-0.9-2.2-1.2-5.1-1.4c1.2-0.2,3.2-0.3,6.8-0.3c1.4,0,2.7,0,4.3,0v-0.9h7.9
			l11.8-1.2l11.8-2.2l11.6-3.6l12.1-4.9l11.3-6.5l9.7-7.9l6.5-7.2l5.6-8.2l4.9-8.9l5.1-11.9l3.8-13l4.8-15l35.3,9l28.8,10.1
			l27.8,12.6l26.6,15.2l19.5,13.7l18.4,14.8l17,16.5l15.4,17.9l19.6,28.7l16.7,30.4l15.4,30.7l19.8,41l17.2,37.7l9.2,1h-5.1
			C1027.2,956.1,1030,957.8,1030.5,959.8z M622.1,1579l-1.5-1.9v-806l2-1.9c0.9-0.9,1.4-1.2,2.6-1.4c-1.9-0.2-4.3-0.3-7.9-0.3v-0.9
			h-7.9l-11.8-1.2l-11.8-2.2l-11.6-3.6l-12.1-4.9l-11.3-6.5l-9.7-7.9l-6.5-7.2l-5.8-8.2l-4.8-9l-5-11.9l-3.8-13l-4.9-14.8l-35.3,8.9
			l-28.8,10.1L418.4,708l-26.6,15.2l-19.5,13.5L354,751.4l-17.1,16.4l-15.4,17.7L301.7,814L285,844.3L269.8,875l-20,41l-17,38
			l-9.2,1h9.2c0,0.2-0.2,0.2-0.2,0.2c-0.3,0.2-1.9,0.7-3.2,0.7c-1.4,0-3.2,0.9-4.6,1.9l-2.4,1.5l0.2,6c0.2,7.2,7,68.8,10.4,95.2
			c2.6,19.6,5.1,36.4,12.8,83.3c8.4,51.4,11.8,78.2,15.9,119.6c1.2,12.1,1.2,22.2,1.2,90.3c0,51-0.2,83.6-0.9,98
			c-0.3,11.8-1.5,36.9-2.2,55c-1.5,38.4-3.2,73.2-4.3,89.6c-1,17.1-1,17.6,1.2,20.1l1.9,2.2l8.2-0.2l8.4-0.2l-0.3,3.9
			c-0.3,3.8-0.2,4.3,1.9,6.1c1.9,1.5,2.7,2.2,6.8,2.6c2.4,0.2,6.1,0.2,8.2-0.2l3.8-0.9v6.7c0,9.4,0.3,9.7,9.2,10.2
			c7.7,0.2,6.8,0.3,43.9-10.4c55.8-16.4,105.5-28.8,153.8-38.7c38.4-7.9,84.5-14.2,112-15.2c9.4-0.3,12.6-0.7,14.3-1.2
			C623.4,1580.5,623.3,1580.2,622.1,1579z M2035.9,959.7c-0.3-2.2-3.8-3.9-7.2-3.9c-1.5,0-2.2-0.3-3.2-3.4h0.3l-4.4-17.9l-7.9-24.4
			l-9.6-24.1l-11.3-23.4l-13.5-23.6l-15.2-22.4l-16.7-21.2l-18.4-19.8l-28.3-24.7l-30.7-22.2l-32.1-20l-36.2-20.8l-37.2-19.1
			l-43.9-19.6l-5.5,10.9l-8.2,1.2l-11.6,1.2l-9.2,0.3l-9.2,0.2l-19.6,0.2l-20.5,0.2l-20.5-0.2l-19.8-0.2l-9.2-0.2l-9.2-0.3
			l-11.6-1.2l-8.2-1.2l-5.8-10.9l-43.9,19.6l-37.2,19.1l-36.2,20.8l-32.1,20l-30.7,22.2l-28.3,24.7l-17.9,19.5l-16.7,21.2
			l-15.2,22.4l-13.5,23.6l-11.3,23.4l-9.6,24.1l-7.9,24.4l-4.4,17.9h0.3c-1,3.1-1.5,3.4-3.1,3.4c-2.6,0-6.1,1.5-6.8,2.7
			c-1.2,2.2-0.9,7.7,1.5,30.2c5.6,56.3,9,82.3,16,126c15.4,95.7,18.4,119.6,21.7,169c1.2,18.3,0.3,140.8-1,174.8
			c-3.2,72.2-3.8,86.9-7.2,152.4l-1.2,23.6l1.5,2c1.2,1.5,2.4,2.2,4.9,2.6c11.8,2,13.8,2.6,13.8,4.3c0,5.8,2.7,8.9,8,8.9
			c1.5,0,4.8,0.3,7.7,1.2l4.8,1.2l0.2,4.3c0.2,2.4,0.9,4.8,1.4,5.5c0.7,0.7,3.6,1.2,7.2,1.9c17.7,2.2,73.2,17.2,112.5,30.2
			c71.7,23.7,124.8,34.6,195.6,39.6c11.9,0.9,14.7,0.9,32.8-0.9c33.3-2.6,62.1-6.7,90.8-12.6c31.4-6.5,54.8-12.8,93.9-25.8
			c36-11.9,92.7-27.5,111.6-30.2c9.6-1.5,10.4-2.2,10.4-7.7v-3.8l3.6-0.9c2.2-0.3,6-1.2,8.9-1.5c6.5-1,7.7-2,7.7-6.7v-3.8l4.3-0.9
			c2.2-0.3,6.1-1.2,8.5-1.5c5.6-0.9,7.9-2.7,7.9-7.2c0-1.5-1.2-23.7-2.4-49.7c-2.4-45.1-3.2-61.8-6-124.8
			c-1.9-42.8-1.9-169.5,0-190.6c3.8-43.5,6.5-64.7,17.4-131.4c9.2-57.7,12.5-80.4,16.7-123.6C2035,977.9,2036.4,962,2035.9,959.7z
			 M1090.4,805.7l21.8-4.9l19.8-3.8l19.8-3.1l25.8-2.2l25.9-0.7l37,1V220.2l-37,0.9l-28.8-0.9l-28.7-2.7l-25.3-4.3l-25.3-5.6
			l-19.5-4.8L1057,197l-15.5-5.6l-21.7-9l-6,14.7l-2.7-1.2l-10.8,26.8L996,233l-5.1,11.6l-3.8,8.4l-15.5,21.3l-25.3,29.2l-27.6,27.1
			l-29.9,24.7l-23.2,16.6l-24.2,15.2l-25.3,13.5l-36.2,16l-37.2,14l-54.6,18.6l-61.3,18.4l4.6,18.3l7,3.6l3.8,2.4l3.6,2.4l2.7,2.6
			l2,2.7l1.9,3.2l1.5,4.6l-0.2,9.7l-0.2,6.7l-0.2,13.5l-0.3,10.8l-1.2,15.5l31.4,4.3l24.7,4.8l24.6,6l22.4,6.8l21.8,7.9l21.2,9.2
			l30.7,16.2l29.4,18.8l27.8,20.7l26.8,22.9l25.4,24.2l23.7,25.8l21.2,26.5l0.3,0.7L990,771l7.9,15.9l13.8,29.9l2.2-0.9l6.5,14.2
			l27-10.6l21.2-7L1090.4,805.7z M74.9,791.7l25.8,2.2l19.8,3.1l19.8,3.8l21.8,4.9l21.8,6.1l21.2,7.2l27,10.6l6.5-14.3l2.2,0.9
			l13.8-29.9l7.9-15.9l6.8-12.6l0.3-0.7l21.2-26.3l23.7-25.8l25.4-24.2l26.8-22.9l28.2-20.8l29.4-18.6l30.7-16.2l21.2-9.2l21.8-7.9
			l22.4-6.8l24.6-6l24.7-4.8l31.6-4.4l-1.4-15.5l-0.3-10.8v-13l-0.2-6.5l-0.2-9.7l1.9-4.6l1.5-3.2l2-2.6l2.7-2.7l3.6-2.4l3.8-2.4
			l6.8-3.6l4.8-18.3l-61.6-18.4l-54.6-18.6l-37.2-14l-36.4-16l-25.3-13.5L387,372.2l-23.4-16.6l-29.5-24.7l-27.3-27.1l-25.3-29.4
			l-15.9-21.3l-3.8-8.4l-5.5-11.6l-4.4-10.4l-10.8-26.8l-2.7,1.2l-5.8-14.7l-21.8,8.9l-15.9,5.6l-18.9,5.8l-19.5,4.8l-24.9,5.6
			l-25.4,4.3l-28.7,2.7L48.8,221l-36.9-0.9v572.1l37-1L74.9,791.7z M948.1,231.1L934.9,178l13.1-53.1v-16.7H304.8v16.7L318,178
			l-13.1,53.1v16.7h643.2V231.1z M676.2,648l-2-9.2l-2.4-7.2l-3.6-6.8l-5.5-6l-8.4-4.9l-9.2-2.9l-9.7-1.2l-8.9,0.3l-8.9-0.3
			l-9.7,1.2l-9.2,2.7l-8.4,4.9l-5.5,6l-3.6,6.8l-2.4,7.2l-2,9.2l-0.9,9.2l0.7,8.2l-0.7,8.2l0.9,9.2l2,9.2l2.4,7.2l3.6,6.8l5.5,6
			l8.4,4.9l9.2,2.7l9.7,1.2l8.9-0.3l8.9,0.3l9.7-1.2l9.2-2.7l8.4-4.9l5.5-6l3.6-6.8l2.4-7.2l2-9.2l0.9-9.2l-0.7-8.2l0.7-8.2
			L676.2,648z M1995.4,592.4l-1.5-31.7l-0.7-13.1l-0.7-11.9l-0.7-13.7l-1.9-45.6l-1.2-32.8l-0.9-24.1l-0.7-32.3l-0.2-15.4l-0.2-13.5
			v-61.6h-717v61.6v13.5l-0.2,15.4l-0.7,32.3l-0.7,24.1l-1.2,32.8L1265,522l-0.7,13.7l-0.7,11.9l-0.7,13.1l-1.5,31.7h619.3H1995.4
			L1995.4,592.4z M1218,1694.7l-1.5-13.1h0.2l-1.5-13.5h0.2l-1.9-13.5h0.2l-1.5-13.1h0.2l-3.1-24.7l-2.2-17.2l-1.9-14.7l-2.4-19.1
			l-0.9-7.7l-1.9-19.6l-2.2-26.8l-3.6-55.1l-3.2-63.8l-1-45.6l-0.3-36.9v-36.9l0.3-37l0.7-36.9l1.2-83.5l0.7-10.9l-0.3-4.8l0.2-38.1
			l-0.2-34.1l-0.2-27.8l-0.2-43.9l-19.6,0.2l-7.9,10.4l-6.7,6.7l-3.6,2.7l-3.8,2.4l-4.3,2l-4.8,1.5l-6,1.5l-5.8,1l-6.7-0.2l-7.2-0.3
			l-6.1-0.7l-5.8-1.2l-5.1-2.2l-4.9-3.1l-6.7-5.1l-5.8-6l-7.2-9.7h-19.6l0.2,36.4l0.2,32.3l0.2,38.1l-0.2,36l0.3,5.8l-2.4,68.6
			l-1.2,49.2l-1.2,45.2l-0.2,29v29l0.9,43.2l1.5,43.2l2,39.3l2.4,39.3l3.2,39.6l3.6,39.6l4.6,44.9l0.3,3.8l1,9.4l0.3,3.9l1,9.4
			l6,51.4l15-1.9l109.2,18.9l16.7-2.2L1218,1694.7L1218,1694.7z M206.7,1239.2l-2-36.4l-2.2-39.8l-3.2-47.6l-0.2-9.2l0.2-0.9
			l0.3-5.6h-0.3l-0.2-19.1v-16.7l0.2-38.1l0.2-32.3l0.3-36.2l-19.6-0.2l-7.2,10.1l-5.8,6l-6.8,5.1l-4.9,3.1l-5.1,2.2l-5.6,1.2
			l-6.5,0.9l-7.2,0.3l-6.7,0.2l-5.8-1l-6.1-1.5l-4.6-1.5l-4.3-2l-3.8-2.4l-3.6-2.7l-6.7-6.8l-7.9-10.4l-19.5-0.3l-0.2,43.9
			l-0.2,27.8l-0.2,34.1l0.2,38.1l0.3,0.2l-0.3,4.8l0.2,0.2l-0.3-0.2L62,1117l1.5,79.4l0.9,35.2l0.7,35.2l0.2,35.2l-0.2,35l-0.7,43.3
			l-3.2,63.8l-3.4,55.1l-2.2,26.8l-1.5,25.9l-2.4,24.1l-3.6,29.5l-2.2,19.1l-2,14.7l-2.2,17.4l-3.2,24.7h0.2l-1.5,13.1H37l-1.5,13.1
			l17.1,2.2l109.1-18.8l15,1.9l6-51.2l1-9.4l0.3-3.8l1-9.4l0.3-3.8l1-9.4l0.3-3.8l1-9.4l0.3-3.9l1-9.4l0.3-3.8l4.8-44.7l3.8-39.6
			l3.2-39.6l2.4-39.3l2-39.3l1.5-43.2l0.9-43.3l-0.7-24.2L206.7,1239.2z"/>
		<path id="stripe-3" class="st1" d="M455.7,247.8h-21.3v-79.5h21.3V247.8z M241.8,1141.4v31.7h359.8v-31.7H241.8z M651.3,1141.4
			v31.7H1011v-31.7H651.3z M1240.7,1141.4v31.7h785.1v-31.7H1240.7z"/>
		<path id="stripe-2" class="st2" d="M434.2,247.8h-21.3v-79.5h21.3V247.8z M49,221.4l-37-1.2v572.1l37-1l25.9,0.7l10.1,1l0.2-573.3
			l-7.3,0.9L49,221.4z M1240.9,220.2l-37,0.9l-28.8-0.9l-5.5-0.7v573.6l8.2-1l25.9-0.7l37,1L1240.9,220.2L1240.9,220.2z
			 M241.8,1109.7v31.7h359.8v-31.7H241.8z M651.3,1109.7v31.7H1011v-31.7H651.3z M1240.7,1109.7v31.7h785.1v-31.7H1240.7z"/>
		<path id="stripe-1" class="st3" d="M477,247.8h-21.3v-79.5H477V247.8z M241.8,1109.7h359.8V1078H241.8V1109.7z M651.3,1109.7H1011
			V1078H651.3V1109.7z M1240.7,1077.8v31.7h785.1v-31.7H1240.7z"/>
	</g>
</g>
</svg>
