<?xml version="1.0" encoding="utf-8"?>
<!-- Generator: Adobe Illustrator 26.0.3, SVG Export Plug-In . SVG Version: 6.00 Build 0)  -->
<svg version="1.1" id="Layer_1" xmlns:svg="http://www.w3.org/2000/svg"
	 xmlns="http://www.w3.org/2000/svg" xmlns:xlink="http://www.w3.org/1999/xlink" x="0px" y="0px" viewBox="0 0 2048 2048"
	 style="enable-background:new 0 0 2048 2048;" xml:space="preserve">
<style type="text/css">
	.st0{fill-rule:evenodd;clip-rule:evenodd;fill:#F2F2F2;}
	.st1{fill:#0A8B9B;}
	.st2{fill:#24AEBB;}
	.st3{fill:#83E9ED;}
	.st4{fill:#036F7E;}
</style>
<path id="base" class="st0" d="M208.5,1260.6l-1-23.4l-2-36.4l-2-39.8l-3-47.6l-0.2-9l0.2-0.6l0.4-5.6h-0.4v-19.2v-16.8v-38l0.2-32
	l0.2-36.2h-19.6l-7.2,9.8l-5.8,6l-6.6,5.2l-5,3l-5,2l-5.6,1.2l-6.2,0.6l-7,0.4h-6.6l-5.8-1l-6-1.6l-4.6-1.6l-4.2-2l-3.8-2.4
	l-3.6-2.8l-6.6-6.6L84,955.9l-19.2-0.2l-0.2,43.6v28v34v38l0.4,0.2l-0.4,4.6c0,0,0,0,0.2,0.2l-0.2-0.2l0.2,10.8l1.6,79.4l0.8,35
	l0.6,35l0.2,35v35l-1.8,43.2l-3.2,63.8l-3.4,55l-2,26.8l-0.8,8.8l-1.4,16.6l-0.2,1.4l-2.4,23.6v0.2l-3,25.6l-0.4,3.8l-2.2,19.2
	l-1,8.2l-0.8,6.4l-2,16.4l-0.2,1l-3,24.2v0.4h0.2l-1.6,12.8v0.4H39l-0.8,2.4l-1.4,11.2v0.4l17,2l9.6-1.6l34-5.8l3.8-0.6l61.6-10.6
	l15,1.8l6-51.2l1-9.4l0.4-3.8l1-9.4l0.4-3.8l1-9.4l0.4-3.8l1-9.4l0.4-3.8l1-9.4l0.4-3.8l4.4-42.4l1-3.2l2-22l0,0l1.6-17.4l3.2-39.4
	l2.4-39.2l2-39.2l1.4-43.2l0.8-43.4L208.5,1260.6z M1219.5,1705.2l-1.6-13l0,0h0.2v-0.4l-1.6-13h0.2v-0.4l-1.6-13h0.2v-0.4l-1.2-9.2
	l-0.4-3.6h0.2l-0.6-5.6l-0.8-7.6h0.2l-1-8l-2-16.8l-1.8-14.4l-0.4-3l-1.8-14.6l-1-8.6l-1-8.4l-0.2-2.2l-0.8-7.4l-0.6-7.2l-1.2-12.4
	l-2-26.8l-3.4-55.2l-3-63.8l-1-45.4l-0.4-36.8v-36.8l0.4-36.8l0.6-36.8l1.2-83.4l0.6-11l-0.4-4.8l0.2-38v-34l-0.2-27.8l-0.2-43.6
	l-19.4,0.2l-7.8,10.4l-6.6,6.6l-3.6,2.8l-3.8,2.4l-4.2,2l-4.6,1.6l-6,1.6l-5.8,1h-6.6l-7-0.4l-6.2-0.6l-5.6-1.2l-5-2.2l-5-3
	l-6.6-5.2l-5.8-6l-7.2-9.8l-19.6,0.2l0.2,36.2l0.2,32v38v36l0.4,5.6l-2.4,68.6l-1,49.2l-1,45l-0.2,29v29l0.8,43.2l1.4,43.2l2,39.2
	l2.4,39.2l1.4,16.4l1.8,23l0.4,5.2l0.8,7.8l1.2,13.8l1,11.2l0.2,1.6l4.6,44.8l0.4,3.8l1,9.4l0.4,4l1,9.4l6,51.2l15-1.8l61.6,10.8
	l3.8,0.6l33.8,5.8l9.8,1.6l0,0l16.8-2L1219.5,1705.2z M1994.3,581.5v-1.6l-1-21l-0.6-13.2l-0.6-11.8l-0.6-13.6l-1.8-45.4l-1-32.8
	l-0.6-24l-0.6-32.2l-0.2-15.4v-13.4v-61.6h-717.1v61.6v13.4L1270,386l-0.6,32.2l-0.6,24l-1,32.8l-1.8,45.4l-0.6,13.6l-0.6,11.8
	l-0.6,13.2l-1.6,31.8h732.4L1994.3,581.5z M948.6,106.9H305.9v16.8l13.2,53l-13,53v16.8h642.5v-16.8l-13-53l13-53V106.9z M565.8,448
	l-54.6-18.6l-37.2-14l-36.2-16l-25-13.4l-24.2-15l-23.2-16.6l-29.6-24.8l-27.8-27.2l-25.2-29.2l-15.8-21.4l-3.8-8.4l-5.2-11.4
	l-4.4-10.4l-10.8-26.6l-2.8,1l-6-14.6l-21.8,8.8l-16.2,5.4l-19,5.6l-19.2,4.8l-25,5.4l-25.2,4.2L79,218.9l-28.8,0.8l-37-0.8v571.5
	l37-1l26,0.6l10,0.8l15.8,1.4l19.8,3l19.8,3.8l21.8,5l21.6,6.2l21.2,7l26.8,10.6l6.4-14.2l2.2,0.8l13.6-29.8l7.8-15.8l6.8-12.6
	l0.4-0.6l21.2-26.2l23.6-25.8l25.4-24.2l26.8-22.6l28-20.8l29.4-18.6l30.8-16l21.2-9l21.8-7.8l22.2-6.6l24.6-6l24.8-4.8l31.6-4.2
	l-1.2-15.6l-0.4-10.8v-13.4v-6.4l-0.2-9.8l1.6-4.6l1.6-3.2l2-2.6l2.8-2.6l3.4-2.4l3.8-2.4l6.8-3.6l4.6-18.2L565.8,448z
	 M1204.1,219.9l-28.8-0.8l-5.4-0.6l-23.2-2.2l-25.2-4.2l-25-5.4l-19.2-4.8l-19-5.6l-15.6-5.6l-21.8-9l-6,14.6l-2.8-1l-10.8,26.6
	l-4.4,10.4l-5.2,11.4l-3.8,8.4l-15.6,21.2l-25.2,29.2l-27.4,27.2l-29.6,24.8L867,371l-24.2,15l-25,13.4l-36.2,16l-37.2,14L689.9,448
	l-61.4,18.2l4.6,18.2l6.8,3.6l3.8,2.4l3.4,2.4l2.8,2.6l2,2.6l1.6,3.2l1.6,4.6l-0.2,9.8v6.6v13.4l-0.4,10.8l-1.2,15.6l31.4,4.2
	l24.8,4.8l24.6,6l22.2,6.6l21.8,7.8l21.2,9l30.8,16l29.4,18.6l28,20.8l26.8,22.6l25.4,24.2l23.6,25.8l21.2,26.2l0.4,0.6l6.8,12.6
	l7.8,15.8l13.6,29.8l2.2-0.8l6.4,14.2l26.8-10.6l21.2-7l21.4-5.8l21.8-5l19.8-3.8l19.8-3l17.6-1.6l8.2-0.8l26-0.6l37,1V218.9
	L1204.1,219.9z M2034.7,958.1c-0.4-2.2-3.8-4-7.2-4c-1.6,0-2.2-0.4-3.2-3.8h1l-1-4.4l-3.4-13.8l-1-3.2l-6.4-19.8l-0.4-1.4l-5.6-14
	l-4-10l-5.4-11.2l-5.8-12l-13.4-23.6l-5.6-8.4l-9.6-14.2l-7.6-9.6l-9.2-11.6l-1-1l-9.4-10.2l-8-8.6l-11.4-10l-17-14.8l-3.4-2.4
	l-15.4-11l-12-8.6l-10-6.2l-19.8-12.4l-2.2-1.4l-20-11.6l-16.2-9.2l-37-19l-43.8-19.6l-5.2,11l-8,1.2l-11.6,1l-9.2,0.4l-9.2,0.2
	h-19.6l-20.4,0.2l-20.4-0.2h-19.6l-9.2-0.2l-9.2-0.4l-11.6-1l-8-1.2l-6-11l-43.8,19.6l-14.4,7.4l-22.6,11.6l-2,1.2l-10.4,6l-24,13.8
	l-1.4,0.8l-20.2,12.6l-11,6.4l-12,8.6l-18.8,13.4l-1.4,1.2l-18.4,16l-8.6,7.6l-2.4,2.6l-16,17.2l-6,7.6l-10.8,13.6l-15,22.4
	l-13.4,23.6l-11,23.2l-9.4,24l-7.8,24.4v0.2l-4.4,17.8h0.6c-0.2,0.8-0.6,1.4-0.8,2c-0.6,1.2-1.4,1.4-2.4,1.4c-2.6,0-6,1.4-6.8,2.8
	c-1,2-0.8,7.6,1.4,30.2c5.6,56.4,9,82.2,16,125.9c15.4,95.8,18.4,119.5,21.6,168.9c1.2,18,0.4,140.7-1,174.5
	c-3.2,72-3.8,86.6-7.2,152.3l-1.2,23.6l1.4,2c1,1.4,2.4,2,4.8,2.6c11.8,2,13.8,2.6,13.8,4.2c0,5.8,2.6,8.8,8,8.8
	c1.4,0,4.8,0.4,7.6,1l2.2,0.6l2.6,0.6l0.2,3.8v0.4c0.2,2.4,0.6,4.6,1.2,5.2c0.4,0.4,1.6,0.8,3.2,1c1.2,0.2,2.4,0.4,4,0.6
	c7.4,0.8,21,4,37.2,8.2c23.4,6,52,14.2,75.2,22c9.8,3.2,19.2,6.2,28.4,9c0.8,0.2,1.4,0.4,2.2,0.6c57,17.2,104.5,25.6,164.7,29.8
	c12,0.8,14.6,0.8,32.8-0.6c33.2-2.6,62.2-6.6,90.8-12.6c27.2-5.6,48.4-11.2,79-21c1.6-0.6,3.4-1,5.2-1.6c3.2-1,6.4-2,9.6-3.2
	c3.8-1.2,8-2.6,12.2-4c5.2-1.6,10.4-3.2,16-5c4-1.2,8-2.4,12.2-3.6c12.8-3.8,25.8-7.2,37.2-10.2c8.8-2.2,16.8-4.2,23.2-5.6
	c4.2-1,7.8-1.6,10.6-2c9.4-1.4,10.4-2.2,10.4-7.6v-2.8l3.6-0.8c2-0.4,6-1,8.6-1.6c6.4-1,7.4-2,7.4-6.6v-3.6l4-0.8
	c2.2-0.4,6-1.2,8.6-1.4c5.6-0.6,7.8-2.6,7.8-7c0-1.6-1-23.8-2.4-49.4c-2.4-45-3.2-61.8-5.8-124.5c-1.8-42.8-1.8-169.3,0-190.5
	c3.8-43.4,6.4-64.6,17.2-131.1c6.4-39.8,9.8-63,12.8-87.6c0-0.6,0.2-1,0.2-1.6c1.2-10.6,2.4-21.6,3.8-34.4c1.6-14.6,2.6-26,3.4-34.2
	l0,0C2034.7,965.3,2035.1,959.5,2034.7,958.1z M1030.9,958.3L1030.9,958.3C1030.9,958.1,1030.7,958.1,1030.9,958.3
	c-0.6-2.6-4.4-4.8-8-4.8h-2.8l0,0h9.6l-9.2-1l-17-37.8l-19.8-41L968.6,843l-16.8-30.2L936.2,790l-4-5.8l-0.4-0.4l-15-17.4L900,750
	l-18.2-14.8l-19.4-13.4l-26.6-15.2l-27.8-12.6l-28.8-10l-35.2-8.8l-4.6,15l-3.8,12.8l-5.2,12l-4.8,8.8l-5.6,8.2l-2.2,2.4l-4.4,4.8
	l-9.8,7.8l-11.2,6.2l-4.2,1.8l-8,3.2l-11.6,3.4l-11.8,2.2l-4.2,0.4v-48.6l3-1l8.4-5l5.4-6l3.6-6.8l2.4-7l2-9l0.6-9.2l-0.6-8l0.6-8
	l-0.6-9.2l-2-9l-2.4-7l-3.6-6.8l-5.4-6l-8.4-5l-9.2-2.6l-9.6-1.2l-8.8,0.4l-8.8-0.4l-9.6,1.2l-9.2,2.6l-8.4,5l-5.4,6l-3.6,6.8
	l-2.4,7l-2,9l-0.6,9.2l0.6,8l-0.6,8l0.6,9.2l2,9l2.4,7l3.6,6.8l5.4,6l8.4,5l2.8,0.8V764l-4.2-0.4l-1-0.2l-10.8-2l-11.6-3.4l-7.4-3
	l-4.8-2l-11.2-6.2l-3.2-2.6l-6.6-5.2l-6.4-7.2l-1.8-2.6l-3.8-5.6l-4.8-8.8l-2-4.6l-3.2-7.4v-0.2l-3.8-12.8l-4.4-15l-35.4,8.8
	l-28.8,10l-27.8,12.6l-26.6,15.2l-19.4,13.4l-18.2,14.8L339.5,766l-15.4,17.8l-19.6,28.6l-16.8,30.2l-0.8,1.6l-2.8,2.4l-13.4,27
	l-19.8,41l-17,37.6l-0.2,0.2l-3.6,0.4l-5.6,0.6h9c-0.4,0.2-1.8,0.6-3,0.6c-0.8,0-1.8,0.2-3,0.8c-0.6,0.2-1.2,0.6-1.6,1l-2.4,1.6v6
	c0.2,7,7,68.8,10.4,95.2c2.6,19.6,5.2,36.4,12.8,83.2c8.2,51.4,11.8,78.2,15.6,119.5c1,12.2,1.2,22.2,1.2,90.2c0,51-0.2,83.4-0.8,98
	c-0.4,11.8-1.6,36.6-2.2,55c-1.6,38.4-3.2,73.2-4.2,89.4c-1,17-1,17.6,1.2,20.2l1.8,2.2l8.2-0.2l8.2-0.2l-0.4,4
	c-0.4,3.8-0.2,4.2,1.6,6c1.6,1.6,2.8,2.2,6.6,2.6c2.4,0.2,6.2,0.2,8.2-0.2l3.6-0.6v6.6c0,9.2,0.4,9.8,9.2,10.2
	c7.6,0.2,6.8,0.4,43.8-10.4c55.8-16.2,105.3-28.8,153.7-38.6c33-6.8,71.6-12.4,99.2-14.6v232.9h49.4V1580
	c19.2,1.4,42.6,4.4,70.8,9.2c1,0.2,2,0.4,3,0.4c1.4,0.2,2.8,0.4,4.2,0.8c4.6,0.8,9.4,1.8,14.4,2.6c6.8,1.4,14,2.8,21.2,4.4
	c6.8,1.4,13.8,3,21,4.6c1,0.2,2,0.4,3,0.6c1.8,0.4,3.6,0.8,5.6,1.2c7.2,1.6,14.4,3.4,22,5.2c2,0.6,4.2,1,6.2,1.6
	c1,0.2,2.2,0.6,3.2,0.8c8.6,2.2,17.2,4.4,26,6.8c3.4,0.8,6.6,1.8,10,2.6c3.4,1,6.6,1.8,10,2.8c0.8,0.2,1.8,0.4,2.6,0.8
	c2.2,0.6,4.4,1.2,6.6,1.8c3.6,1,7.2,2,11,3c7.4,2.2,15,4.4,22.6,6.6c4.2,1.2,7.6,2.2,10.6,3.2c0.4,0.2,1,0.2,1.4,0.4
	c0.6,0.2,1.4,0.4,2,0.6l0,0c1.6,0.4,3.2,0.8,4.4,1.2l0,0c0.2,0,0.6,0.2,0.8,0.2h0.2c0.8,0.2,1.4,0.4,2,0.6c0.2,0,0.6,0.2,0.8,0.2
	c1,0.2,1.8,0.4,2.8,0.6h0.2c0.4,0,0.6,0,1,0.2c0.4,0,0.8,0.2,1.2,0.2c0.2,0,0.4,0,0.6,0c1.2,0.2,2.2,0.2,3.4,0.2l7.2,0.2l2.2-2.2
	c2.2-2.2,2.2-2.2,2-8.6c-0.2-5.4,0-6.2,0.8-6c0.4,0.2,0.8,0.2,1.2,0.2h0.2c0.4,0,0.8,0.2,1.4,0.2l0,0c0.4,0,0.8,0.2,1.2,0.2
	c0.2,0,0.2,0,0.4,0c0.4,0,0.8,0,1.4,0c5,0.2,9.8-0.6,11.6-2.2c1.4-1.4,1.6-2.4,1.6-6.2v-4.4l7.4,0.2c12,0.4,13.4-0.8,12.8-11.8
	c-1-14.8-3.4-66.4-6.2-131.9c-1.4-33.4-1.6-45.6-1.6-118.1c0-87.6,0-83.6,4.2-123.7c3-28,5.8-47,13.8-96.2c7-43.6,9-57.2,11.6-76.2
	C1024.5,1024.3,1031.1,962.7,1030.9,958.3z"/>
<path id="stripe-4" class="st1" d="M1252,932.5l-13.8,8l9.2,11.8l13,16.6l114.1-83.6l-64,199.1l7.8,52.4l102.7-302.3L1252,932.5z
	 M2026.5,1045.3L1905.7,921l-18.8,11.2l101.8,104.9l-235.9,62l47.6-54l-5,25l163.1-44.6l-70-67.2l-42.2,61l38.2-23.8l7-5l27.4,26.2
	l-93.8,25.6l15.2-75l-149.1,167.5l335.2-88.2l1.4-0.4L2026.5,1045.3z M1637.1,1162.4l-10.4-60.6l68.6-68.6l-109.7,27.6l44,5.6
	l-31.6,30l14.6,94.4l387.6-99.4l15.2-25L1637.1,1162.4z M1448.1,1025.5l319.6-215.1l-189.5-125.1l-67.2-16l209.5,140.5l-216.1,152.5
	l19.6-40.2l157.5-110.3L1414,720l-41.2-14.2l-29,13l48,16.2l187.1,63.2l22.4,7.6l32.8,11l-129.9,94.6L1448.1,1025.5z M1797.2,862
	l-358.2,247.7l57.6-6l-82.2,49.4l-83.2-12.2l-5.4,18l42.6,8.2l-4.6,28c0,0,16.8,24.6,16.8,25l7.6-49.6l31,5.8l176.9-102l-77.6,6
	l269.1-181.7l15.8,32.8l9.4-39.8L1797.2,862z M425.4,952.5l15.2,73.2l-94-25l27.4-25.6l7,4.8l38.2,23.2l-42.4-59.4l-70,65.4
	l163.1,43.6l-5-24.4l47.6,52.8l-235.9-60.4l102-102.4l-18.8-10.8l-121.9,122.3l336.6,86.2L425.4,952.5z M250.3,1049.1l15.4,24.6
	l338.8,84.6v-21.4L250.3,1049.1z M570.4,1016.9l34,33.2v-24.8L570.4,1016.9z M545,799l52-35.6l2-1.4c-8.8-1.2-15.8-3-23.8-6
	c-2.2-0.8-4.2-1.6-6.2-2.4l-1.8,1.2l-69.6,44.8l106.5,70V840L545,799z M584,801l20.4,14v-20.8L584,801z M468.4,849.8l-15.6,29
	l9.4,38.8l15.8-32l126.3,83.2v-27.2L468.4,849.8z M1030.9,958.3L1030.9,958.3c0-0.2,0-0.2,0-0.2c-0.6-2.4-4.4-4.6-7.8-4.6h-2.8
	l-4.8-10.8c-5.2-11.4-11.2-24.6-17.6-38l0,0l-121.1-70.2l102.9,302.3l7.8-52.4l-63.8-199.1l107.3,78.8
	C1030.7,961.1,1030.9,959.1,1030.9,958.3z M712.1,1060.7l-60.2-15.2v37l19.2,19.2l-10.4,60.6l-8.8-2.2v22l33.2,8.6l14.6-94.4
	l-31.6-30L712.1,1060.7z M663.7,817l32.8-11l22.4-7.6l0,0l168.7-57c-6.8-5.4-13.8-10.6-21-15.4l-214.7,73.6v37.6l121.7,85.2
	l19.6,40.2l-141.5-100v30l197.7,132.9l-55.8-114.1L663.7,817z M972,1158.6l-5.4-18l-83.2,12.2l-82.2-49.4l57.6,6L651.7,966.5v27.6
	l127.3,86l-77.6-6l176.9,102l31-5.8l7.6,49.6c0-0.4,16.8-25,16.8-25l-4.6-28L972,1158.6z"/>
<path id="stripe-3" class="st2" d="M1219.5,1705.2l-1.4-11.2l-27.4-40.4l-57.6-84.8l-5,40.6l52.2,77.6l6.4,9.4l6.2,9.2l0,0l9.6,1.6
	l0,0L1219.5,1705.2L1219.5,1705.2z M1109.5,1591l-14,88.4l25.6-16l6.6-53.8l5-40.2C1132.9,1569.6,1111.3,1589.6,1109.5,1591z
	 M123.4,1569l-57.6,84.8l-27.6,40.4l-1.4,11.2v0.4l17,2l9.6-1.6l6.2-9.2l6.4-9.4l52.2-77.6L123.4,1569z M146.8,1591
	c-1.8-1.4-23.4-21.4-23.4-21.4l5,40.2l6.6,53.8l25.6,16L146.8,1591z M1348.6,1422.5l-14,88.4l25.6-16l11.6-94
	C1372,1401.1,1350.4,1421.1,1348.6,1422.5z M1281.4,1641.4l-8.8,32.2l33.2,43l19.4-3.2L1281.4,1641.4z M1332.2,1622.6l4.8,42.2
	l-35.8-50.4l-15.8,6l20.4,31l2.8,4.4l4.4,6.8l41.2,63v-68l103.5,44.8l1.6,0.6h0.6l50.4-5.2L1332.2,1622.6z M1314.6,1569l-8.8,22
	l270.1,105.3l79.2,1.6L1314.6,1569z M1484.1,1519.5l-45.6-4.4l266.5,181.3h50.8L1484.1,1519.5z M1971.3,1386.9l-63.8-94.2
	l16.6,123.7l-265.7,170.7l-125.7-87l44.4-6.8l84.2-157.5l-173.7,137.3l55-16l39.8-32l-25.6,50.8l-84.2,15l182.7,123.1l286.9-188.3
	l-3.4-45.8l22.8,42.2L1971.3,1386.9z M1915.1,1253.4l50,89.8l3.8-53.6L1915.1,1253.4z M1965.1,1245.6l-79.2-60.8l-14,97.8
	l-131.5-21.4l-67.8,13.2l222.1,36.2l10-87l69.4,57.2L1965.1,1245.6z M2024.1,945.9l-19.2-4.8l26.2,39.6l2.6-4.2l0,0l14.6-24.4
	L2024.1,945.9z M2013.3,909.4l-101.2-15.2l94.2,116.9l20-9.8l-65-81l58.4,8.8l26.4,4l1.2-4.8v-13.8L2013.3,909.4z M2004.7,815.2
	l-48.6-10.2l-31.6-6.6l19.4,25.4l29.4,4.8l30.6,5.2l17.6-2.2l-13.8,42.8l-9.8-1.8l-64.2-11.8l-31.4,16l104.9,17.2l17.8,2.8
	l22.2-69.4v-17.8L2004.7,815.2z M1601.1,806l-15.8-12.6l-6.6,5l-47,36.2l-22.2-37.2L1371.6,750l-63.6-21.8l9,43.2l-20.2-17
	l-17.2,12.6l40.6,34l32.8,27.6l-10.8-52.4l-3-15l14.2,5l136.7,47.8l36,56l76-63.2L1601.1,806z M341.5,1390.5l16.6-120.5l-63.8,91.8
	l10,34.6l22.8-41l-3.4,44.6l279.5,178.9l0,0c0.4,0,0.8,0,1.4-0.2v-23.4L341.5,1390.5z M604.2,1312l0.2,0.4L604.2,1312L604.2,1312z
	 M296.7,1266.8l3.8,52.2l49.8-87.6L296.7,1266.8z M525.4,1239.2l-131.5,21l-14-95.4l-79.2,59.2l-9,34.4l69.4-55.8l10,85l222.1-35.4
	L525.4,1239.2z M245.9,930.5c-0.2,0.6-0.4,1-0.8,1.6c-4.6,10.2-9,19-9.4,19.2c-0.4,0.2-1.2,0.4-2,0.6c-0.4,0-0.8,0-1.2,0
	c-0.6,0-1.6,0.2-2.6,0.6c-0.4,0.2-0.8,0.4-1.2,0.6c-0.2,0.2-0.6,0.4-0.8,0.6l-0.8,0.4l0.2,0.4l6.8,11.2l26.2-38.8L245.9,930.5z
	 M263.1,894.4c-3.2,6.8-6.4,13.6-9.4,19.8l50.8-7.4l-65.2,78.8l20,9.6L353.5,881L263.1,894.4z M331.7,848.6l-50.6,9.2
	c-3.2,6.6-6.8,13.8-10.4,21.2l92.6-14.8L331.7,848.6z M318.9,792.2c-5,7.2-10,14.8-15,23.2l17.6-3l19.4-24.8L318.9,792.2z
	 M949,1422.5c-1.8-1.4-23.4-21.4-23.4-21.4l11.6,94l25.6,16L949,1422.5z M925.8,1639.2c0.4,0.2,1,0.2,1.4,0.4c0.6,0.2,1.4,0.4,2,0.6
	l0,0c1.6,0.4,3.2,0.8,4.4,1.2l0,0c0.2,0,0.6,0.2,0.8,0.2h0.2c0.8,0.2,1.4,0.4,2,0.6c0.2,0,0.6,0.2,0.8,0.2c1,0.2,1.8,0.4,2.8,0.6
	h0.2c0.4,0,0.6,0.2,1,0.2s0.8,0.2,1.2,0.2c0.2,0,0.4,0,0.6,0c1.2,0.2,2.2,0.2,3.4,0.2l7.2,0.2l2.2-2.2c2.2-2.2,2.2-2.2,2-8.6
	c-0.2-5.4,0-6.2,0.8-6c0.4,0.2,0.8,0.2,1.2,0.2h0.2c0.4,0,0.8,0.2,1.4,0.2l0,0c0.4,0,0.8,0.2,1.2,0.2c0.2,0,0.2,0,0.4,0
	c0.4,0,0.8,0,1.4,0l0.6-5.4L925.8,1639.2z M983,1569l-130.5,49.4c3.4,0.8,6.6,1.8,10,2.6c3.4,1,6.6,1.8,10,2.8
	c0.8,0.2,1.8,0.4,2.6,0.8c2.2,0.6,4.4,1.2,6.6,1.8c3.6,1,7.2,2,11,3l99-38.6L983,1569z M813.3,1519.5L709.3,1587
	c4.2,0.6,8.6,1.4,13.2,2.2c1,0.2,2,0.4,3,0.4c1.4,0.2,2.8,0.4,4.2,0.8c4.6,0.8,9.4,1.8,14.4,2.6l114.9-78.2L813.3,1519.5z
	 M740.9,1475.9l-25.8-50.8l39.8,32l55,16l-157.9-124.9v17l68.6,128.1l44.4,6.8l-112.9,78v1.6c10.6,0.8,22.6,2,35.8,3.8l137.5-92.8
	L740.9,1475.9z M948.6,810.6l-3.6,17.8l9.6-8C952.4,817,950.6,813.6,948.6,810.6z M906.8,758c-0.4-0.4-0.8-0.8-1.2-1.2l-117.3,40.4
	l-22.4,37.2l-47-36.2l0,0l-6.6-5l-15.8,12.6l-0.8,0.6l76,63.2l36-56l114.1-40C917.2,768.4,912.2,763.2,906.8,758z"/>
<path id="stripe-2" class="st3" d="M1344.8,441.4l-14,88.4l25.6-16l11.6-94C1368.2,420,1346.6,440,1344.8,441.4z M1310.8,588.1
	l-1.2,2.8h8.6L1310.8,588.1z M1480.3,538.5l-45.6-4.6l83.6,56.8h42.4L1480.3,538.5z M1967.5,406l-63.8-94.2l16.6,123.7l-241.7,155.3
	h37.6l221.9-145.7l-3.4-45.8l22.8,42.2L1967.5,406z M1573.3,512.4l84.2-157.5l-173.7,137.5l55-16l39.8-32l-25.6,50.8l-84.2,15
	l119.5,80.8h44.2l-103.3-71.6L1573.3,512.4z M1945.5,295.5h-21.4l37.2,66.8l3.8-53.6L1945.5,295.5z M1968.9,295.5h-4.2l5.4,4.4
	L1968.9,295.5z M1883.9,295.5l-16,6.4l-39-6.4h-148.7l210.5,34.2l4-34.2l0.6-4.4L1883.9,295.5z M1552.3,295.5h-19.8l3,22.2
	l-93.6,70.2l3.4-44l76.4-29.2l-3.2-19.2h-25l1.2,4.8l-71.2,24.8l-6.2,112.3L1566.3,325L1552.3,295.5z M1438.9,295.5l-15.2,14.8
	l25.8-14.8H1438.9z M1953.7,1172l40.6,24.6v-45.8L1953.7,1172z M2001.3,1132.6l-3-20.6l-131.7,42.6l119.9,77.6l0.8-22.2l-68-48.8
	L2001.3,1132.6z M1550.9,1193.6l-22.8,22.6l11.4,82.4l-93.6,70.2l3.4-44l76.4-29.2l-14.6-85.8l-83.6,81.6l64.4-37.2l6.4,27.2
	l-70.8,24.8l-6.4,112.1l148.9-112.1L1550.9,1193.6z M2006.7,773.6l-48.8-19l10.6-28.4l6.6-11.2l-26-16.2l-18.8,66.4l94,38.8
	L2006.7,773.6z M1494.3,674.1l-24.4-17l-19.8,16l19.6,13.8l22.2,15.6l-32.6-9.8l-41.6-12.4l-11.4,17.6l27.6,9.4l210.9,71.4
	L1494.3,674.1z M1773,954.9l8.4,18.8l94.4-24.4l-49.4-161.9l-384.2,279.5l-29-4l68.2-159.1l29.6-21.2l-5.8-15.2l-32.4-15.4l8.6,25.2
	l-20.2,16.2l-1,2.2l-79.2,184.7l36.2,4.8l-35,25.4l-16.4-3l109.3-285.7l-114.9-40.4l8.4,42.2l-61.2,38.6l16-37.6l-26.8,9.8
	l-32.2,87.2l128.3-89.4l-1-17.6l49.6,20l-106.1,289.5l55.8,8.4L1811.8,826l32,109.3l-49,12.4l-13-23.2l-173.9,112.3l125.9-23
	l-83.2,91.4l19.2,10.8l124.5-132.3l-88.2,15.4L1773,954.9z M271.3,1131.6v44.6l40.6-24L271.3,1131.6z M267.5,1093.7l-3,20l81.8,28
	l-67.8,47.4l0.8,21.6l120.1-75.6L267.5,1093.7z M604.4,1076.1l-72.8-78l72.8,13v-24L483.6,911l-13,22.6l-48.8-12l32-106.5L604.4,922
	v-27.4L439.2,777.4l-49.6,157.9l94.4,23.8l8.4-18.4l66.4,43.4l-88-15l124.5,128.9l8.8-4.8l10.4-5.6L604.4,1076.1z M870,1306
	l-71-24.8l6.4-27.2l64.6,37.2l-83.6-81.6l-14.6,85.8l76.4,29.2l3.4,44l-93.6-70.2l11.4-82.4l-22.8-22.6l-19,112.5l148.7,112.1
	L870,1306z M834,706.9c-5.8-3-11.2-5.6-16.6-8l-11.8,3.6l7.6-5.4c-9.2-4-18.2-7.4-28.2-10.4l-66.2,46l0,0l-2,1.4l-29.6,20.6
	l-3.2,2.2l0,0l-31.6,22L846,713.3C842,711.1,838,708.9,834,706.9z M905.8,814.6l-1,17.6l86.8,60.6c-7.4-15.4-14.8-30.4-21.2-42.8
	L929,823.8l6.4-32.6l0.2-1.2l1.6-8.4l-6,2.2l-1.2,0.4L822.2,822l109.5,285.5l-16.4,3l-34.8-25.4l36.2-4.8l-79.4-184.7l-0.8-2.2
	l-20.2-16.2L825,852l-32.4,15.4l-5.8,15.2l29.6,21.2l68.2,159.1l-29,4l0,0L652.1,918.8v28.2l254.5,185.5l55.8-8.4L856.2,834.6
	L905.8,814.6z M651.7,1012.5v17.6l37.8,7L651.7,1012.5z M435,166.9v79.4h21.4v-79.4H435z"/>
<path id="stripe-1" class="st4" d="M1996.5,579.7l-2.2,0.4l-40.6,6l7.4-24l-21.4-69.6l5.4-4.2l23.4,36.6l-1.4-47.6l-18-22l-28.8,28
	l23.4,80l-5.8,27.6h45.8l10.8-9.2L1996.5,579.7L1996.5,579.7L1996.5,579.7z M1911.1,590.9h14.2l2.6-11.8L1911.1,590.9z
	 M1915.5,500.2l-14.8,49.4l-62.2,41.2h36.4l46-30.8L1915.5,500.2z M1750.8,590.9h47l91.4-56.8l17.8-41.6L1750.8,590.9z
	 M1848.5,374.4l-80.8-3l35,22.4l32.8,3.8l-144.1,96.6l27.6-66l49-0.8l-30.6-21.4l-38.2,2l-65.2,144.7l220.9-136.1L1848.5,374.4z
	 M1885.9,345.2l-132.5-10l3-14c0,0-57.4-18.4-59.6-19.2l31.6,29.8l-4.6,22.8l141.9,10.6l10.8,56.4l-235.1,151.5l47.2-2.8
	l211.9-141.9L1885.9,345.2z M1740.2,372.6l-42-2.2l16-36.2l-57.4-34.2v-4.4h-31.4l3,15.4l54.2,30.8L1600.1,511l7,43l80.8-162.5
	l92,3.8L1740.2,372.6z M1385.8,295.5l-1.4,1.2v-1.2h-21l3.6,48.4l23.8-48.4H1385.8z M1578.5,342.6L1389,478.6l21.6-153.5l-57,58.4
	l-2.8,34.2l31.6-35.2L1362,534.1L1578.5,342.6z M1643,340l-39-31.2l-25,8.8l26.4,21.6l-272.3,243.1l23.6,8.4h55.2l-39.6-16.4
	L1643,340z M1424.4,544.7l2,30.8l20,15.2h44.8L1424.4,544.7z M1217.9,1692.4v-0.4h0.2l0,0l-1.6-13v-0.4h0.2l-1.6-13v-0.4h0.2l-1-8.6
	l0,0l-0.2-0.6l-5.8-27.2l3.2,2.2l0,0l-2-17.2l-1.8-13.8l0,0l-34.4-23.4l17.6,77.4l5.8,25.6l-16.2,7.8l-24.6,11.8l-0.6,0.2l-3,1.4
	l6.8-0.8l1.4-0.2l26.4-3.2l10.6-1.2l1.8,11.2l3.4,0.6l16.8-2l0,0L1217.9,1692.4z M1202.9,1549.4l-1.4-0.8l-1-0.6l-14.2-46.2l0,0
	l-0.6-2l-0.2,1.8l-5.4,56.6l24.2,15.8l0.4,0.2L1202.9,1549.4z M1059.5,1505.5l-2,1.2l3.4,27.6l0.8-0.6l1.6-1l18-40.6L1059.5,1505.5z
	 M1089.9,1499.7l-14.8,48.2l-11.2,7.2l-0.2,0.2l1.4,11l0.2,1.2l1,9.8l29.2-19.2L1089.9,1499.7z M1102.3,1576.4l-34,23.2l1.2,12.6
	l0.4,3.8l1,9.4l0.4,4l1,9.4l6,51.2l15-1.8l6,1l-20.6-10L1102.3,1576.4z M101.4,1699.6l-0.6-0.4l-24.6-11.8l-16.2-7.8l5.8-25.6
	l17.6-77.4l-33.6,22.8L49,1600l-1.8,13.8l-2,17.2l1-0.6l2.4-1.6l-5.2,24.4l-0.8,3.4l0,0l-1,8.6h0.2l-1.6,13.2h0.2v0.4l-1.6,12.8l0,0
	H39v0.4l-1.6,13l0,0l16.8,2l3.4-0.6l1.8-11.2l10.6,1.2l26.4,3.2l1.4,0.2l6.8,0.8L101.4,1699.6z M71,1501.5l-0.2-1.8l-0.6,2l0,0
	L56,1547.8l-0.6,0.4l-1.8,1.2l-2,24.8l1-0.6l23.6-15.4L71,1501.5z M198.2,1506.3l-23.2-14.2l18,40.6l2.4,1.4l0.4-3.4l3-24
	L198.2,1506.3z M181.4,1547.8l-14.8-48.2l-5.4,58.4l29.2,19.2l1-9.8l1.4-12.2L181.4,1547.8z M154,1576.4l23.4,102.9l-20.6,10l6-1
	l15,1.8l6-51.2l1-9.4l0.4-4l1-9.4l0.4-3.8l1.2-12.6L154,1576.4z M1371.4,1679.4v34l49-12.2L1371.4,1679.4z M1832.6,1697l-4.4-13.6
	l-21.8,17.6l21-2.4l5.4-0.6L1832.6,1697z M1870.3,1685l-7.8-27.4l-8,32.2l-2.8,11.2h23.4L1870.3,1685z M1988.9,1662.6l-24.8-9.6
	l-19.6-7.6l8.6-44l47.6-40.8l-43,6.4l7.4-24.2l-21.4-69.6l5.4-4.2l23.4,36.6l-1.6-47.6l-17.8-22l-28.8,28l23.4,80l-23.4,111.7
	l18.8,9.8l63,32.4L1988.9,1662.6z M1919.7,1671.2l-11.2-5.6l23.4-105.7L1781.4,1665l-64-41.6l21-12.8l40.6,28l145.7-97.8l-5.4-59.8
	l-14.8,49.4l-126.3,83.6l-19.4-15.8l134.1-83.4l17.8-41.8l-236.1,149.1l105.9,69.6l116.1-78.2l-14.4,67.8l-3.6,17.2l25.8,2.4l3-18.8
	l45.2,5.4L1919.7,1671.2z M1852.3,1355.5l-80.8-3l35.2,22.2l32.6,4l-144.1,96.6l27.6-66l49-1l-30.8-21.2l-38.2,2l-65.2,144.7
	l220.9-136.1L1852.3,1355.5z M1889.7,1326.2l-132.5-10l3-14c0,0-57.4-18.4-59.6-19.2l31.6,29.8l-4.6,22.8l141.9,10.6l10.8,56.4
	L1645.4,1554l47.2-2.8l211.9-141.9L1889.7,1326.2z M1866.3,1238.2l-249.9-28.4l15.6,82.2l54.2,30.8l-82.6,169.1l7,43l80.8-162.5
	l92,3.8l-39.4-22.6l-42-2l16-36.4l-57.2-34.2l-0.8-44.8l202.3,22.8L1866.3,1238.2z M1863.5,1172.8l-17.8,30.8l-100.6-11.2l73.4-20.4
	l34.6-30l-230.7,59l244.1,26.8L1863.5,1172.8z M1334.6,1179.2l19.8,116.3v-97.2L1334.6,1179.2z M1426.4,1211.4l-28.6,31l39.2-11.8
	l-48.4,47.2l-3-37l-22.8-23.8l8.2,108.1l180.1-158.5L1426.4,1211.4z M1582.5,1323.6L1393,1459.7l21.6-153.5l-57.2,58.2l-2.8,34.4
	l31.6-35.2l-20.6,151.5L1582.5,1323.6z M1430.4,1556.6l61.2,46.4l-115.3-47.6L1647,1321l-39-31l-25-189.7L1404.2,1202l155.1-67.2
	l23.8,163.9l26.6,21.6l-272.5,243.1l305.5,110.1l-214.3-147.7L1430.4,1556.6z M2040.9,738.4l-49.4-17.6l-10,30.6l63.4,30.4
	L2040.9,738.4z M1856.5,673.1l-39.4,22l-38.6,21.6l-61.6-43.4l-32.8,6l94,65l61.4-36.2l39.8-23.4L1856.5,673.1z M1271.2,979.3
	l12.2,20.2l28.6-26.2l-12.4,48.4l12.6,29.6l35.8-129.7L1271.2,979.3z M1982.9,858.6l-25-25.2l-59-7.8l11-38l-0.2,0.8l36.2,3.6
	l15.4,1.6l-25-11.8l-21.8-10.2l2.4-8.4l27.6-94.4l-85.2,51.6l-80,48l-132.3-86l-30.2,2.2L1780.2,796l101.2-61l22-13.2l-6.6,24.2
	l-18.2,67.6l-13.8-51.6l-14.4,43.6l27.8,92.2l18.6-63.4l-2.4,11L1982.9,858.6z M341.5,1437.1l-28.8-27.4l-18,21.4l-1.4,46.4
	l23.4-35.6l5.4,4l-21.4,68l7.4,23.4l-42.8-6.2l47.6,39.8l8.4,42.8l-33.6,12.6c2.4,0.2,5.2,0,7-0.4l3.6-0.6v6.6c0,8.4,0.4,9.8,7,10
	l36.2-18.2l-23.4-108.5L341.5,1437.1z M354.7,1445.9l17.8,40.6l134.1,81.4l-19.4,15.4l-126.3-81.6l-14.8-48.2l-5.4,58.4l134.1,87.6
	c10.2-2.2,20.2-4.4,30.4-6.4c1-0.2,2-0.4,3-0.6l18.8-12.6l12,7c12.4-2,24.8-3.8,36.4-5.4L354.7,1445.9z M445.4,1606.6l-111.7-76
	l22.6,100c7.2-2,14.4-4.2,21.4-6.2l-9-41.4l47.4,31C426,1611.4,435.8,1608.8,445.4,1606.6z M562.4,1363.7l-38.2-2l-30.8,20.8l49,0.8
	l27.6,64.2l-144.1-94l32.8-3.8l35-21.8l-80.8,3l-6.6,41l197.9,118.9v-36.2L562.4,1363.7z M385.1,1376.9l11-55l141.9-10.4l-4.8-22.2
	l31.6-29c-2.4,0.8-59.6,18.8-59.6,18.8l3,13.6l-132.5,9.8l-14.8,81l211.9,138.5l31.4,1.8v-9L385.1,1376.9z M604.4,1258.8l-56.8,33
	l16,35.4l-42,2l-39.4,22l92-3.8l30.2,59.4v-57.6l-25.2-50.2l25.2-14L604.4,1258.8L604.4,1258.8z M399.3,1216.8l4.4,20.2l200.9-22.2
	V1194L399.3,1216.8z M412.4,1122.9l34.8,29.2l73.2,20l-100.6,11l-18-30l-2.6,53.6l205.1-22.2v-13.8L412.4,1122.9z M522.2,703.7
	l-3-1.2l-19.4-7.8L487,708.1l-31.6-17.2c-8.8,3.4-17.2,7-25.6,11l57.8,33.2l35-25l1.8-1.4C523.6,706.9,522.8,705.3,522.2,703.7z
	 M415.6,795l-14.6-42.4L387.3,803l-17.6-63.8c-5.6,4.4-11.2,9.2-16.4,14c-1.2,1.2-2.6,2.4-3.8,3.6l1.6,5.4l-12.4,5.6
	c-3.8,4.2-7.6,8.8-11.4,13.4l28.6-2.8l10.8,36.2l-59,7.6l-16.8,16.4l-5.8,5.8l-2.4,2.4l1.4-0.2l3-0.4l84.6-12.2l-2.4-11l18.6,62
	L415.6,795z M535,727.8l-2,1.2l-46.8,29.6l-78.2-45.6c-7.8,4.4-15.2,9-22.4,14l99.8,58.6L548,744l1.8-1.2
	C544.2,738.6,539.4,733.6,535,727.8z M651.7,1516.7v12.4l7.6,4.8L651.7,1516.7z M651.7,1553.6L651.7,1553.6l0.2,0.2L651.7,1553.6z
	 M651.7,1405.7v58.6l35,70.6l7-43L651.7,1405.7z M651.7,1213v86.6l13.6-7.8l15.6-82.2L651.7,1213z M651.7,1194.8v8.6l23.2-2.6
	L651.7,1194.8z M943.2,1198.4v97.2l19.8-116.3L943.2,1198.4z M912,1240.6l-2.8,37l-48.6-47.2l39.2,12l-28.6-31.2l-124.5-44.8
	L926.8,1325l8.2-108.1L912,1240.6z M943.2,1398.5l-3-34.4L883,1306l21.6,153.5l-189.5-136.1L932,1514.9l-20.4-151.7L943.2,1398.5z
	 M687.9,1320.2l26.4-21.6l23.8-163.9l155.1,67.2l-178.9-101.8l-24.8,189.7l-37.8,30.2l-1.2,1l1.2,1l269.7,233.5L806.1,1603
	l61.2-46.4l1.8-30.8l-103.9,71.6c6.8,1.4,13.8,3,21,4.6c1,0.2,2,0.4,3,0.6c1.8,0.4,3.6,0.8,5.6,1.2c7.2,1.6,14.4,3.4,22,5.2
	c2,0.6,4.2,1,6.2,1.6c1,0.2,2.2,0.6,3.2,0.8l134.1-48.4L687.9,1320.2z M1026.1,979.3l-77-57.6l35.8,129.7l12.8-29.6l-12.4-48.4
	l28.6,26.2L1026.1,979.3z M1204.1,219.9l-28.8-0.8l-5.4-0.6v572.9l8.2-1l26-0.6l37,1V218.9L1204.1,219.9z M79,219.1l-28.8,0.8
	l-37-0.8v571.5l37-1l26,0.6l10,1v-0.4V218.3L79,219.1z M456.4,167.1v79.4h21.4v-79.4H456.4z M413.6,167.1v79.4H435v-79.4H413.6z"/>
</svg>
